<svg width="48" height="48" viewBox="0 0 48 48" fill="none" xmlns="http://www.w3.org/2000/svg">
<g clip-path="url(#clip0_1410_3275)">
<path d="M41.9458 17.5738L47.444 5.36914H40.5058L34.8876 13.3827C34.3749 14.1203 33.5349 14.5562 32.6512 14.5562H12.4258L16.5058 20.3791C16.8112 20.8038 17.2912 21.0609 17.804 21.0609H32.6621C33.5458 21.0609 34.3858 21.4968 34.9094 22.2456L43.6803 34.7856L47.6403 30.7286L41.8258 17.8197L41.9349 17.5738H41.9458Z" fill="black"/>
<path d="M15.3822 33.4331H35.5858L31.5058 27.6101C31.2004 27.1854 30.7204 26.9284 30.2076 26.9284H15.3494C14.4658 26.9284 13.6258 26.4925 13.1022 25.7437L4.33126 13.2148L0.360352 17.2719L6.1749 30.1807L6.06581 30.4266L0.578533 42.6313H7.51672L13.1349 34.6178C13.6476 33.8801 14.4876 33.4443 15.3713 33.4443L15.3822 33.4331Z" fill="black"/>
</g>
<defs>
<clipPath id="clip0_1410_3275">
<rect width="48" height="38" fill="white" transform="translate(0 5)"/>
</clipPath>
</defs>
</svg>
