<svg width="32" height="32" viewBox="0 0 32 32" fill="none" xmlns="http://www.w3.org/2000/svg">
<rect width="32" height="32" fill="black"/>
<g clip-path="url(#clip0_1415_3381)">
<path d="M26.468 12.1591L29.6753 5.20996H25.628L22.3508 9.77269C22.0517 10.1927 21.5617 10.4409 21.0462 10.4409H9.24805L11.628 13.7563C11.8062 13.9981 12.0862 14.1445 12.3853 14.1445H21.0526C21.568 14.1445 22.058 14.3927 22.3635 14.8191L27.4799 21.9591L29.7899 19.6491L26.398 12.2991L26.4617 12.1591H26.468Z" fill="white"/>
<path d="M10.9727 21.1886H22.7581L20.3781 17.8731C20.2 17.6313 19.92 17.4849 19.6209 17.4849H10.9536C10.4381 17.4849 9.94814 17.2368 9.64269 16.8104L4.52632 9.67676L2.20996 11.9868L5.60178 19.3368L5.53814 19.4768L2.33723 26.4258H6.38451L9.66178 21.8631C9.96087 21.4431 10.4509 21.1949 10.9663 21.1949L10.9727 21.1886Z" fill="white"/>
</g>
<defs>
<clipPath id="clip0_1415_3381">
<rect width="28" height="21.6364" fill="white" transform="translate(2 5)"/>
</clipPath>
</defs>
</svg>
